# AST/ASF file generated using VICON BodyLanguage
# -----------------------------------------------
:version 1.10
:name VICON
:units
  mass 1.0
  length 0.45
  angle deg
:documentation
   .ast/.asf automatically generated from VICON data using
   VICON BodyBuilder and BodyLanguage model FoxedUp or BRILLIANT.MOD
:root
   order TX TY TZ RX RY RZ
   axis XYZ
   position 0 0 0  
   orientation 0 0 0 
:bonedata
  begin
     id 1 
     name lhipjoint
     direction 0.621036 -0.695554 0.361275 
     length 2.46325 
     axis 0 0 0  XYZ
  end
  begin
     id 2 
     name lfemur
     direction 0.34202 -0.939693 0  
     length 6.54784  
     axis 0 0 20  XYZ
    dof rx ry rz
    limits (-160.0 20.0)
           (-70.0 70.0)
           (-60.0 70.0)
  end
  begin
     id 3 
     name ltibia
     direction 0.34202 -0.939693 0   
     length 7.84737   
     axis 0 0 20   XYZ
    dof rx
    limits (-10.0 170.0)
  end
  begin
     id 4 
     name lfoot
     direction 0.0790693 -0.217241 0.97291   
     length 2.59747   
     axis -90 7.62852e-016 20   XYZ
    dof rx rz
    limits (-45.0 90.0)
           (-70.0 20.0)
  end
  begin
     id 5 
     name ltoes
     direction 1.53572e-011 -4.21898e-011 1   
     length 1.29919   
     axis -90 7.62852e-016 20   XYZ
    dof rx
    limits (-90.0 20.0)
  end
  begin
     id 6 
     name rhipjoint
     direction -0.602353 -0.708375 0.367935   
     length 2.41867  
     axis 0 0 0  XYZ 
  end
  begin
     id 7 
     name rfemur
     direction -0.34202 -0.939693 0   
     length 6.92065   
     axis 0 0 -20   XYZ
    dof rx ry rz
    limits (-160.0 20.0)
           (-70.0 70.0)
           (-70.0 60.0)
  end
  begin
     id 8 
     name rtibia
     direction -0.34202 -0.939693 0   
     length 7.88883   
     axis 0 0 -20   XYZ
    dof rx
    limits (-10.0 170.0)
 end
 begin
     id 9 
     name rfoot
     direction -0.0768692 -0.211196 0.974416   
     length 2.43714  
     axis -90 -7.62852e-016 -20   XYZ
    dof rx rz
    limits (-45.0 90.0)
           (-20.0 70.0)
  end
  begin
     id 10 
     name rtoes
     direction -1.53575e-011 -4.21933e-011 1   
     length 1.22113   
     axis -90 -7.62852e-016 -20   XYZ
    dof rx
    limits (-90.0 20.0)
  end
  begin
     id 11 
     name lowerback
     direction 0.0197937 0.98943 -0.143655   
     length 2.16931   
     axis 0 0 0   XYZ
    dof rx ry rz
    limits (-20.0 45.0)
           (-30.0 30.0)
           (-30.0 30.0)
  end
  begin
     id 12 
     name upperback
     direction -0.00183968 0.999975 0.00684288   
     length 2.17221   
     axis 0 0 0   XYZ
    dof rx ry rz
    limits (-20.0 45.0)
           (-30.0 30.0)
           (-30.0 30.0)
  end
  begin
     id 13 
     name thorax
     direction -0.00950244 0.997208 0.0740685   
     length 2.22549   
     axis 0 0 0   XYZ
    dof rx ry rz
    limits (-20.0 45.0)
           (-30.0 30.0)
           (-30.0 30.0)
  end
  begin
     id 14 
     name lowerneck
     direction 0.0218238 0.996215 0.0841425   
     length 1.77269   
     axis 0 0 0   XYZ
    dof rx ry rz
    limits (-20.0 45.0)
           (-30.0 30.0)
           (-30.0 30.0)
  end
  begin
     id 15 
     name upperneck
     direction -0.00430652 0.994214 -0.107332   
     length 1.76534   
     axis 0 0 0   XYZ
    dof rx ry rz
    limits (-20.0 45.0)
           (-30.0 30.0)
           (-30.0 30.0)
  end
  begin
     id 16
     name head
     direction -0.00328946 0.998959 -0.0454998  
     length 1.82634  
     axis 0 0 0   XYZ
    dof rx ry rz
    limits (-20.0 45.0)
           (-30.0 30.0)
           (-30.0 30.0)
  end
  begin
     id 17 
     name lclavicle
     direction 0.970962 0.239191 0.00450212  
     length 3.84872  
     axis 0 0 0   XYZ
    dof ry rz
    limits (-20.0 10.0)
           (0.0 20.0)
  end
  begin
     id 18 
     name lhumerus
     direction 1 -4.48966e-011 5.74696e-028   
     length 5.22771   
     axis 180 -30 -90   XYZ
    dof rx ry rz
    limits (-60.0 90.0)
           (-90.0 90.0)
           (-90.0 90.0)
  end
  begin
     id 19
     name lradius
     direction 1 -4.4896e-011 4.25109e-027   
     length 3.45251   
     axis 180 -30 -90   XYZ
    dof rx
    limits (-10.0 170.0)
  end
  begin
     id 20
     name lwrist
     direction 1 -4.48971e-011 1.15382e-027   
     length 1.72626   
     axis -5.52449e-016 90 90   XYZ
    dof ry
    limits (-180.0 0.0)
 end
  begin
     id 21 
     name lhand
     direction 1 -4.49034e-011 2.30765e-027   
     length 0.552119   
     axis -1.47248e-015 90 90   XYZ
    dof rx rz
    limits (-90.0 90.0)
           (-45.0 45.0)
  end
  begin
     id 22 
     name lfingers
     direction 1 -4.48951e-011 4.61529e-027   
     length 0.445133   
     axis -2.94495e-015 90 90   XYZ
    dof rx
    limits (0.0 90.0)
  end
  begin
     id 23
     name lthumb
     direction 0.707107 -6.34991e-011 0.707107   
     length 0.639124   
     axis -90 45 2.85299e-015   XYZ
    dof rx rz
    limits (-45.0 45.0)
           (-45.0 45.0)
  end
  begin
     id 24 
     name rclavicle
     direction -0.97424 0.222511 -0.0366699   
     length 3.73439  
     axis 0 0 0   XYZ 
    dof ry rz
    limits (-10.0 20.0)
           (-20.0 0.0)
  end
  begin
     id 25 
     name rhumerus
     direction -1 -4.48956e-011 -4.97258e-028  
     length 5.2398   
     axis 180 30 90   XYZ
    dof rx ry rz
    limits (-90.0 60.0)
           (-90.0 90.0)
           (-90.0 90.0)
  end
  begin
     id 26 
     name rradius
     direction -1 -4.4897e-011 -1.72611e-027   
     length 3.48042   
     axis 180 30 90   XYZ
    dof rx
    limits (-10.0 170.0)
  end
  begin
     id 27 
     name rwrist
     direction -1 -4.48976e-011 1.15382e-027   
     length 1.74021   
     axis -5.52449e-016 -90 -90   XYZ
    dof ry
    limits (-180.0 0.0)
  end
  begin
     id 28
     name rhand
     direction -1 -4.48963e-011 2.30765e-027   
     length 0.618713   
     axis -1.47248e-015 -90 -90   XYZ
    dof rx rz
    limits (-90.0 90.0)
           (-45.0 45.0)
  end
  begin
     id 29
     name rfingers
     direction -1 -4.4888e-011 4.61529e-027   
     length 0.498823   
     axis -2.94495e-015 -90 -90   XYZ
    dof rx
    limits (0.0 90.0)
  end
  begin
     id 30
     name rthumb
     direction -0.707107 -6.34968e-011 0.707107   
     length 0.716213   
     axis -90 -45 -2.85299e-015   XYZ
    dof rx rz
    limits (-45.0 45.0)
           (-45.0 45.0)
  end
:hierarchy
  begin
    root lhipjoint rhipjoint lowerback
    lhipjoint lfemur
    lfemur ltibia
    ltibia lfoot
    lfoot ltoes
    rhipjoint rfemur
    rfemur rtibia
    rtibia rfoot
    rfoot rtoes
    lowerback upperback
    upperback thorax
    thorax lowerneck lclavicle rclavicle
    lowerneck upperneck
    upperneck head
    lclavicle lhumerus
    lhumerus lradius
    lradius lwrist
    lwrist lhand lthumb
    lhand lfingers
    rclavicle rhumerus
    rhumerus rradius
    rradius rwrist
    rwrist rhand rthumb
    rhand rfingers
  end

#!OML:ASF G:\JayActor3\Patient Classification 1\Patient 1\Session 5\male.ASF
:FULLY-SPECIFIED
:DEGREES
300
root -38.8217 16.1072 -6.25991 -25.392 84.4597 -41.2787
lowerback 33.4926 -1.16018 2.27227
upperback 9.17817 0.0168051 -2.16479
thorax -7.01821 0.425226 -3.53905
lowerneck 0.217127 -0.00856223 1.26121
upperneck -22.4488 1.47354 3.53
head -6.8961 0.658679 0.801822
rclavicle -2.06736e-014 3.77691e-014
rhumerus -29.6155 5.64434 -89.9965
rradius 48.2903
rwrist -7.14166
rhand -20.5622 -10.0403
rfingers 7.12502
rthumb 5.79703 -39.941
lclavicle -2.06736e-014 3.77691e-014
lhumerus -26.7761 1.48893 80.2693
lradius 42.3774
lwrist 26.8246
lhand -19.1171 14.3772
lfingers 7.12502
lthumb 7.1921 44.235
rfemur -74.7143 -4.19535 19.1447
rtibia 87.0262
rfoot 28.6577 -15.0354
rtoes 8.19815
lfemur -58.5539 14.0736 -23.7329
ltibia 77.8899
lfoot 8.53209 -3.71547
ltoes -37.4072
301
root -38.7878 16.1035 -6.26453 -24.8575 84.3956 -40.6596
lowerback 33.5452 -1.16028 2.18952
upperback 9.20582 -0.00719781 -2.18804
thorax -7.0096 0.416352 -3.51087
lowerneck 0.209323 0.026791 1.25892
upperneck -22.4243 1.51938 3.52435
head -6.88733 0.681559 0.797669
rclavicle -9.54166e-015 1.82882e-014
rhumerus -29.6443 5.61664 -90.0103
rradius 48.2641
rwrist -7.11866
rhand -20.5828 -10.0798
rfingers 7.12502
rthumb 5.77713 -39.981
lclavicle -9.54166e-015 1.82882e-014
lhumerus -26.7148 1.54974 80.1798
lradius 42.2319
lwrist 26.7481
lhand -19.2035 14.1821
lfingers 7.12502
lthumb 7.10868 44.0428
rfemur -75.1782 -4.23983 19.4909
rtibia 86.7933
rfoot 28.7996 -14.7583
rtoes 7.58737
lfemur -58.3847 14.1659 -23.7373
ltibia 77.9777
lfoot 8.60596 -3.69819
ltoes -37.4587
302
root -38.7536 16.1003 -6.26792 -24.2955 84.3562 -40.0202
lowerback 33.6031 -1.16521 2.09855
upperback 9.22927 -0.0400963 -2.21288
thorax -7.00809 0.403118 -3.47694
lowerneck 0.211066 0.0615648 1.26306
upperneck -22.4022 1.56348 3.51135
head -6.88092 0.703374 0.790137
rclavicle 1.82882e-014 2.66371e-014
rhumerus -29.6773 5.58804 -90.0254
rradius 48.2234
rwrist -7.09631
rhand -20.6121 -10.08
rfingers 7.12502
rthumb 5.74884 -39.982
lclavicle 1.82882e-014 2.66371e-014
lhumerus -26.6514 1.59773 80.0925
lradius 42.0832
lwrist 26.6795
lhand -19.2161 14.194
lfingers 7.12502
lthumb 7.09651 44.055
rfemur -75.6182 -4.2763 19.8184
rtibia 86.4553
rfoot 29.0206 -14.4623
rtoes 6.83785
lfemur -58.2207 14.2642 -23.7724
ltibia 78.0558
lfoot 8.68177 -3.64701
ltoes -37.4821
303
root -38.7185 16.0979 -6.27059 -23.6891 84.3301 -39.3313
lowerback 33.6746 -1.17251 2.00773
upperback 9.24923 -0.0760918 -2.24298
thorax -7.01564 0.38845 -3.44767
lowerneck 0.230137 0.0940839 1.28206
upperneck -22.382 1.60342 3.48811
head -6.878 0.722273 0.776981
rclavicle 1.11319e-014 5.96354e-015
rhumerus -29.7107 5.54495 -90.0426
rradius 48.1613
rwrist -7.04747
rhand -20.6292 -10.0977
rfingers 7.12502
rthumb 5.73235 -40.0001
lclavicle 1.11319e-014 5.96354e-015
lhumerus -26.5889 1.62766 80.0067
lradius 41.9309
lwrist 26.6228
lhand -19.1571 14.4067
lfingers 7.12502
lthumb 7.15346 44.2658
rfemur -76.0141 -4.29718 20.1246
rtibia 86.0107
rfoot 29.2694 -14.1871
rtoes 6.0299
lfemur -58.0372 14.3768 -23.8319
ltibia 78.1195
lfoot 8.7408 -3.55499
ltoes -37.4632
304
root -38.6831 16.0952 -6.27188 -23.1846 84.3077 -38.7502
lowerback 33.7499 -1.18196 1.91323
upperback 9.26925 -0.114937 -2.26289
thorax -7.02433 0.372287 -3.40465
lowerneck 0.247359 0.130864 1.29906
upperneck -22.363 1.64706 3.45418
head -6.87507 0.744003 0.76049
rclavicle -1.03368e-014 -7.55382e-015
rhumerus -29.7355 5.52299 -90.0561
rradius 48.0924
rwrist -6.99848
rhand -20.6437 -10.1305
rfingers 7.12502
rthumb 5.71833 -40.0334
lclavicle -1.03368e-014 -7.55382e-015
lhumerus -26.5189 1.66857 79.9295
lradius 41.7763
lwrist 26.5778
lhand -19.1075 14.588
lfingers 7.12502
lthumb 7.2014 44.4455
rfemur -76.3788 -4.28644 20.4243
rtibia 85.4676
rfoot 29.4453 -14.0461
rtoes 5.41215
lfemur -57.8572 14.5113 -23.8936
ltibia 78.1746
lfoot 8.77899 -3.43444
ltoes -37.394
305
root -38.6457 16.0938 -6.27304 -22.6356 84.2892 -38.1211
lowerback 33.8273 -1.1938 1.82994
upperback 9.28607 -0.15409 -2.28956
thorax -7.03735 0.355958 -3.37467
lowerneck 0.277407 0.165158 1.33083
upperneck -22.3417 1.686 3.41047
head -6.87345 0.762618 0.738579
rclavicle 1.98785e-014 5.28767e-014
rhumerus -29.7696 5.48852 -90.0745
rradius 48.01
rwrist -6.94035
rhand -20.6593 -10.1388
rfingers 7.12502
rthumb 5.7033 -40.0421
lclavicle 1.98785e-014 5.28767e-014
lhumerus -26.4584 1.68855 79.855
lradius 41.6263
lwrist 26.5438
lhand -19.0859 14.7186
lfingers 7.12502
lthumb 7.22224 44.5753
rfemur -76.6921 -4.26018 20.7022
rtibia 84.8224
rfoot 29.567 -13.923
rtoes 4.78172
lfemur -57.641 14.6633 -23.9722
ltibia 78.2104
lfoot 8.76281 -3.2838
ltoes -37.2962
306
root -38.6063 16.093 -6.27391 -22.1492 84.2706 -37.5569
lowerback 33.8955 -1.2081 1.75927
upperback 9.30616 -0.191901 -2.31209
thorax -7.04313 0.34037 -3.34744
lowerneck 0.301259 0.199544 1.36277
upperneck -22.3143 1.72312 3.35981
head -6.86862 0.780973 0.714527
rclavicle -9.54166e-015 0
rhumerus -29.7978 5.44863 -90.0847
rradius 47.9081
rwrist -6.87594
rhand -20.6742 -10.0949
rfingers 7.12502
rthumb 5.68896 -39.9986
lclavicle -9.54166e-015 0
lhumerus -26.3932 1.70389 79.7933
lradius 41.4787
lwrist 26.5148
lhand -19.0531 14.8966
lfingers 7.12502
lthumb 7.25388 44.7523
rfemur -76.9618 -4.21849 20.9705
rtibia 84.0807
rfoot 29.6058 -13.8568
rtoes 4.26759
lfemur -57.3985 14.8317 -24.0531
ltibia 78.2289
lfoot 8.69821 -3.11818
ltoes -37.2055
307
root -38.5644 16.0939 -6.27471 -21.6831 84.2579 -37.0126
lowerback 33.9434 -1.22665 1.69116
upperback 9.33884 -0.232724 -2.32637
thorax -7.02764 0.323934 -3.31154
lowerneck 0.298707 0.233927 1.38088
upperneck -22.2741 1.75755 3.30676
head -6.85494 0.799864 0.692333
rclavicle -1.27222e-014 2.70347e-014
rhumerus -29.8116 5.42183 -90.082
rradius 47.7971
rwrist -6.81911
rhand -20.6898 -10.0433
rfingers 7.12502
rthumb 5.67382 -39.9473
lclavicle -1.27222e-014 2.70347e-014
lhumerus -26.317 1.73412 79.7502
lradius 41.337
lwrist 26.4835
lhand -19.0788 14.9106
lfingers 7.12502
lthumb 7.22907 44.7671
rfemur -77.1793 -4.1736 21.2242
rtibia 83.2439
rfoot 29.6175 -13.7538
rtoes 3.68463
lfemur -57.1161 15.0072 -24.1395
ltibia 78.2205
lfoot 8.5918 -2.94107
ltoes -37.1234
308
root -38.5199 16.0964 -6.27514 -21.2717 84.2554 -36.5217
lowerback 33.9767 -1.251 1.62956
upperback 9.38129 -0.277371 -2.33433
thorax -6.99611 0.306157 -3.27094
lowerneck 0.273703 0.266962 1.38943
upperneck -22.2233 1.78868 3.2548
head -6.83384 0.818307 0.67244
rclavicle -8.74653e-015 -2.78299e-015
rhumerus -29.8192 5.40231 -90.0706
rradius 47.684
rwrist -6.77836
rhand -20.6998 -9.98364
rfingers 7.12502
rthumb 5.66421 -39.8879
lclavicle -8.74653e-015 -2.78299e-015
lhumerus -26.2331 1.77111 79.7214
lradius 41.2059
lwrist 26.4455
lhand -19.1287 14.8526
lfingers 7.12502
lthumb 7.18095 44.7108
rfemur -77.3433 -4.13117 21.4642
rtibia 82.3184
rfoot 29.5901 -13.6978
rtoes 3.20237
lfemur -56.7999 15.1856 -24.2264
ltibia 78.185
lfoot 8.46139 -2.76685
ltoes -37.0868
309
root -38.474 16.0999 -6.27497 -20.9367 84.2767 -36.1125
lowerback 34.0061 -1.28567 1.58258
upperback 9.42186 -0.330123 -2.34141
thorax -6.96575 0.284477 -3.23434
lowerneck 0.238957 0.294592 1.39706
upperneck -22.1605 1.81221 3.20828
head -6.80713 0.832811 0.655009
rclavicle 5.56597e-015 1.43125e-014
rhumerus -29.835 5.37383 -90.0575
rradius 47.5764
rwrist -6.73692
rhand -20.7003 -9.94439
rfingers 7.12502
rthumb 5.66368 -39.8487
lclavicle 5.56597e-015 1.43125e-014
lhumerus -26.1539 1.79995 79.7006
lradius 41.0904
lwrist 26.3971
lhand -19.17 14.7983
lfingers 7.12502
lthumb 7.14108 44.6578
rfemur -77.4685 -4.10617 21.689
rtibia 81.3147
rfoot 29.5832 -13.6392
rtoes 2.72402
lfemur -56.4726 15.3496 -24.3145
ltibia 78.1262
lfoot 8.33829 -2.60303
ltoes -37.078
